<?xml version="1.0" encoding="utf-8"?>
<!-- Generator: Adobe Illustrator 22.0.1, SVG Export Plug-In . SVG Version: 6.00 Build 0)  -->
<svg version="1.1" id="Ebene_1" xmlns="http://www.w3.org/2000/svg" xmlns:xlink="http://www.w3.org/1999/xlink" x="0px" y="0px"
	 viewBox="0 0 841.9 595.3" style="enable-background:new 0 0 841.9 595.3;" xml:space="preserve">
<style type="text/css">
	.st0{fill:#FFFFFF;}
</style>
<path class="st0" d="M328.6,310h-32.8c-0.8,0-1.4,0.6-1.4,1.4v3.9c0,0.8,0.6,1.4,1.4,1.4h32.8c0.8,0,1.4-0.6,1.4-1.4v-3.9
	C330,310.6,329.4,310,328.6,310z M328.6,300.3h-32.8c-0.8,0-1.4,0.6-1.4,1.4v3.9c0,0.8,0.6,1.4,1.4,1.4h32.8c0.8,0,1.4-0.6,1.4-1.4
	v-3.9C330,301,329.4,300.3,328.6,300.3z M328.6,290.5h-32.8c-0.8,0-1.4,0.6-1.4,1.4v3.9c0,0.8,0.6,1.4,1.4,1.4h32.8
	c0.8,0,1.4-0.6,1.4-1.4V292C330,291.2,329.4,290.5,328.6,290.5z M328.6,280.9h-32.8c-0.8,0-1.4,0.6-1.4,1.4v3.9
	c0,0.8,0.6,1.4,1.4,1.4h32.8c0.8,0,1.4-0.6,1.4-1.4v-3.9C330,281.5,329.4,280.9,328.6,280.9z"/>
</svg>
